<mxfile host="app.diagrams.net" modified="2021-06-20T02:29:18.956Z" agent="5.0 (X11; CrOS aarch64 13904.55.0) AppleWebKit/537.36 (KHTML, like Gecko) Chrome/91.0.4472.102 Safari/537.36" etag="AuYzw5Ts0rqIMStbsrCN" version="14.8.0" type="github">
  <diagram id="RTqnX-EMJj5HqA8ffOZD" name="Page-1">
    <mxGraphModel dx="852" dy="514" grid="1" gridSize="10" guides="1" tooltips="1" connect="1" arrows="1" fold="1" page="1" pageScale="1" pageWidth="850" pageHeight="1100" math="0" shadow="0">
      <root>
        <mxCell id="0" />
        <mxCell id="1" parent="0" />
        <mxCell id="cX7OmJHnVWXveSGsJJL_-6" style="edgeStyle=orthogonalEdgeStyle;rounded=0;orthogonalLoop=1;jettySize=auto;html=1;exitX=0.5;exitY=1;exitDx=0;exitDy=0;exitPerimeter=0;entryX=0.5;entryY=0;entryDx=0;entryDy=0;entryPerimeter=0;" edge="1" parent="1" source="cX7OmJHnVWXveSGsJJL_-1" target="cX7OmJHnVWXveSGsJJL_-2">
          <mxGeometry relative="1" as="geometry" />
        </mxCell>
        <mxCell id="cX7OmJHnVWXveSGsJJL_-1" value="Start" style="strokeWidth=2;html=1;shape=mxgraph.flowchart.terminator;whiteSpace=wrap;" vertex="1" parent="1">
          <mxGeometry x="370" y="220" width="100" height="60" as="geometry" />
        </mxCell>
        <mxCell id="cX7OmJHnVWXveSGsJJL_-7" style="edgeStyle=orthogonalEdgeStyle;rounded=0;orthogonalLoop=1;jettySize=auto;html=1;exitX=0.5;exitY=1;exitDx=0;exitDy=0;exitPerimeter=0;entryX=0.5;entryY=0;entryDx=0;entryDy=0;entryPerimeter=0;" edge="1" parent="1" source="cX7OmJHnVWXveSGsJJL_-2" target="cX7OmJHnVWXveSGsJJL_-3">
          <mxGeometry relative="1" as="geometry" />
        </mxCell>
        <mxCell id="cX7OmJHnVWXveSGsJJL_-11" style="edgeStyle=orthogonalEdgeStyle;rounded=0;orthogonalLoop=1;jettySize=auto;html=1;exitX=0;exitY=0.5;exitDx=0;exitDy=0;exitPerimeter=0;entryX=0.5;entryY=0;entryDx=0;entryDy=0;" edge="1" parent="1" source="cX7OmJHnVWXveSGsJJL_-2" target="cX7OmJHnVWXveSGsJJL_-4">
          <mxGeometry relative="1" as="geometry">
            <Array as="points">
              <mxPoint x="290" y="360" />
              <mxPoint x="290" y="630" />
              <mxPoint x="420" y="630" />
            </Array>
          </mxGeometry>
        </mxCell>
        <mxCell id="cX7OmJHnVWXveSGsJJL_-2" value="for row value" style="strokeWidth=2;html=1;shape=mxgraph.flowchart.decision;whiteSpace=wrap;" vertex="1" parent="1">
          <mxGeometry x="370" y="310" width="100" height="100" as="geometry" />
        </mxCell>
        <mxCell id="cX7OmJHnVWXveSGsJJL_-8" style="edgeStyle=orthogonalEdgeStyle;rounded=0;orthogonalLoop=1;jettySize=auto;html=1;exitX=0.5;exitY=1;exitDx=0;exitDy=0;exitPerimeter=0;entryX=0.5;entryY=0;entryDx=0;entryDy=0;" edge="1" parent="1" source="cX7OmJHnVWXveSGsJJL_-3" target="cX7OmJHnVWXveSGsJJL_-5">
          <mxGeometry relative="1" as="geometry" />
        </mxCell>
        <mxCell id="cX7OmJHnVWXveSGsJJL_-10" style="edgeStyle=orthogonalEdgeStyle;rounded=0;orthogonalLoop=1;jettySize=auto;html=1;exitX=1;exitY=0.5;exitDx=0;exitDy=0;exitPerimeter=0;entryX=1;entryY=0.5;entryDx=0;entryDy=0;entryPerimeter=0;" edge="1" parent="1" source="cX7OmJHnVWXveSGsJJL_-3" target="cX7OmJHnVWXveSGsJJL_-2">
          <mxGeometry relative="1" as="geometry" />
        </mxCell>
        <mxCell id="cX7OmJHnVWXveSGsJJL_-3" value="for single element" style="strokeWidth=2;html=1;shape=mxgraph.flowchart.decision;whiteSpace=wrap;" vertex="1" parent="1">
          <mxGeometry x="370" y="430" width="100" height="100" as="geometry" />
        </mxCell>
        <mxCell id="cX7OmJHnVWXveSGsJJL_-14" style="edgeStyle=orthogonalEdgeStyle;rounded=0;orthogonalLoop=1;jettySize=auto;html=1;exitX=0.5;exitY=1;exitDx=0;exitDy=0;entryX=0.5;entryY=0;entryDx=0;entryDy=0;entryPerimeter=0;" edge="1" parent="1" source="cX7OmJHnVWXveSGsJJL_-4" target="cX7OmJHnVWXveSGsJJL_-12">
          <mxGeometry relative="1" as="geometry" />
        </mxCell>
        <mxCell id="cX7OmJHnVWXveSGsJJL_-4" value="total = sum / (rows+columns)" style="rounded=1;whiteSpace=wrap;html=1;absoluteArcSize=1;arcSize=14;strokeWidth=2;" vertex="1" parent="1">
          <mxGeometry x="370" y="650" width="100" height="50" as="geometry" />
        </mxCell>
        <mxCell id="cX7OmJHnVWXveSGsJJL_-9" style="edgeStyle=orthogonalEdgeStyle;rounded=0;orthogonalLoop=1;jettySize=auto;html=1;exitX=0;exitY=0.5;exitDx=0;exitDy=0;entryX=0;entryY=0.5;entryDx=0;entryDy=0;entryPerimeter=0;" edge="1" parent="1" source="cX7OmJHnVWXveSGsJJL_-5" target="cX7OmJHnVWXveSGsJJL_-3">
          <mxGeometry relative="1" as="geometry" />
        </mxCell>
        <mxCell id="cX7OmJHnVWXveSGsJJL_-5" value="sum += single element" style="rounded=1;whiteSpace=wrap;html=1;absoluteArcSize=1;arcSize=14;strokeWidth=2;" vertex="1" parent="1">
          <mxGeometry x="370" y="560" width="100" height="50" as="geometry" />
        </mxCell>
        <mxCell id="cX7OmJHnVWXveSGsJJL_-12" value="Stop" style="strokeWidth=2;html=1;shape=mxgraph.flowchart.terminator;whiteSpace=wrap;" vertex="1" parent="1">
          <mxGeometry x="375" y="730" width="100" height="60" as="geometry" />
        </mxCell>
      </root>
    </mxGraphModel>
  </diagram>
</mxfile>
